<?xml version="1.0" encoding="UTF-8"?>
<svg xmlns="http://www.w3.org/2000/svg" xmlns:xlink="http://www.w3.org/1999/xlink" width="30px" height="30px" viewBox="0 0 30 30" version="1.1">
<g id="surface1">
<path style=" stroke:none;fill-rule:nonzero;fill:rgb(0%,0%,0%);fill-opacity:1;" d="M 24.800781 4.535156 C 24.933594 4.660156 25.0625 4.777344 25.203125 4.890625 C 25.953125 5.546875 26.582031 6.382812 27.128906 7.207031 C 27.164062 7.257812 27.199219 7.3125 27.234375 7.363281 C 28.757812 9.757812 29.5625 12.464844 29.550781 15.300781 C 29.550781 15.378906 29.550781 15.378906 29.550781 15.460938 C 29.546875 16.277344 29.511719 17.066406 29.355469 17.871094 C 29.347656 17.925781 29.335938 17.980469 29.324219 18.035156 C 29.09375 19.300781 28.691406 20.523438 28.125 21.679688 C 28.101562 21.730469 28.078125 21.777344 28.050781 21.828125 C 27.699219 22.542969 27.308594 23.207031 26.835938 23.847656 C 26.8125 23.882812 26.785156 23.914062 26.761719 23.949219 C 26.449219 24.375 26.113281 24.769531 25.753906 25.152344 C 25.632812 25.285156 25.515625 25.414062 25.402344 25.550781 C 24.75 26.300781 23.914062 26.933594 23.085938 27.480469 C 23.035156 27.515625 22.980469 27.550781 22.929688 27.585938 C 19.644531 29.679688 15.699219 30.386719 11.890625 29.566406 C 11.675781 29.519531 11.464844 29.46875 11.25 29.414062 C 11.207031 29.402344 11.160156 29.390625 11.117188 29.378906 C 9.597656 28.992188 8.058594 28.289062 6.796875 27.363281 C 6.742188 27.324219 6.691406 27.289062 6.636719 27.25 C 5.519531 26.453125 4.480469 25.511719 3.632812 24.433594 C 3.585938 24.378906 3.542969 24.320312 3.496094 24.261719 C 1.480469 21.730469 0.4375 18.566406 0.449219 15.34375 C 0.449219 15.292969 0.449219 15.238281 0.449219 15.183594 C 0.453125 14.371094 0.484375 13.574219 0.644531 12.773438 C 0.660156 12.691406 0.660156 12.691406 0.675781 12.613281 C 0.890625 11.539062 1.203125 10.496094 1.640625 9.492188 C 1.660156 9.449219 1.679688 9.40625 1.695312 9.363281 C 2.625 7.273438 4.101562 5.328125 5.917969 3.925781 C 5.949219 3.902344 5.980469 3.875 6.015625 3.851562 C 6.601562 3.402344 7.214844 3.007812 7.851562 2.636719 C 7.890625 2.613281 7.929688 2.589844 7.972656 2.566406 C 13.039062 -0.347656 19.691406 0.359375 24.800781 4.535156 Z M 8.519531 5.949219 C 8.195312 6.308594 8.050781 6.679688 8.011719 7.160156 C 8.046875 7.660156 8.199219 8.078125 8.554688 8.4375 C 8.933594 8.746094 9.320312 8.867188 9.808594 8.84375 C 10.285156 8.789062 10.707031 8.578125 11.015625 8.203125 C 11.335938 7.734375 11.425781 7.371094 11.367188 6.796875 C 11.25 6.441406 11.070312 6.15625 10.78125 5.917969 C 10.753906 5.894531 10.722656 5.867188 10.695312 5.839844 C 10.03125 5.308594 9.125 5.355469 8.519531 5.949219 Z M 7.734375 9.667969 C 7.734375 13.863281 7.734375 18.058594 7.734375 22.382812 C 8.933594 22.382812 10.132812 22.382812 11.367188 22.382812 C 11.367188 18.1875 11.367188 13.992188 11.367188 9.667969 C 10.167969 9.667969 8.96875 9.667969 7.734375 9.667969 Z M 13.242188 9.667969 C 13.242188 13.863281 13.242188 18.058594 13.242188 22.382812 C 14.421875 22.382812 15.601562 22.382812 16.816406 22.382812 C 16.816406 21.808594 16.816406 21.238281 16.820312 20.648438 C 16.820312 20.285156 16.820312 19.921875 16.824219 19.558594 C 16.824219 18.980469 16.828125 18.40625 16.828125 17.828125 C 16.828125 17.410156 16.828125 16.988281 16.832031 16.570312 C 16.832031 16.347656 16.832031 16.125 16.832031 15.902344 C 16.832031 15.695312 16.832031 15.484375 16.835938 15.277344 C 16.835938 15.164062 16.835938 15.050781 16.835938 14.9375 C 16.84375 14.375 16.980469 13.96875 17.355469 13.546875 C 17.910156 13.035156 18.574219 12.921875 19.300781 12.933594 C 19.648438 12.957031 19.910156 13.027344 20.148438 13.292969 C 20.402344 13.667969 20.457031 14.03125 20.457031 14.476562 C 20.460938 14.546875 20.460938 14.617188 20.460938 14.6875 C 20.460938 14.765625 20.460938 14.839844 20.460938 14.917969 C 20.460938 15 20.460938 15.082031 20.464844 15.164062 C 20.464844 15.382812 20.464844 15.605469 20.46875 15.824219 C 20.46875 16.054688 20.46875 16.285156 20.472656 16.515625 C 20.472656 16.953125 20.476562 17.390625 20.480469 17.824219 C 20.484375 18.324219 20.484375 18.820312 20.488281 19.316406 C 20.496094 20.339844 20.5 21.359375 20.507812 22.382812 C 21.6875 22.382812 22.867188 22.382812 24.082031 22.382812 C 24.085938 20.972656 24.085938 20.972656 24.085938 19.566406 C 24.089844 18.992188 24.089844 18.414062 24.089844 17.839844 C 24.09375 17.421875 24.09375 17 24.09375 16.582031 C 24.09375 16.359375 24.09375 16.140625 24.09375 15.917969 C 24.121094 14.214844 24.121094 14.214844 23.835938 12.546875 C 23.816406 12.476562 23.816406 12.476562 23.796875 12.410156 C 23.515625 11.449219 22.957031 10.609375 22.089844 10.078125 C 21.007812 9.535156 19.894531 9.570312 18.75 9.902344 C 18.074219 10.128906 17.46875 10.449219 16.875 10.839844 C 16.855469 10.453125 16.835938 10.066406 16.816406 9.667969 C 15.636719 9.667969 14.457031 9.667969 13.242188 9.667969 Z M 13.242188 9.667969 "/>
</g>
</svg>
